<svg width="0" height="0" xmlns="http://www.w3.org/2000/svg">
<symbol id="instagramIcon" viewBox="0 0 70 70">
<path d="M53.096 16.223a19.049 19.049 0 0 0-1.222-6.464 13.447 13.447 0 0 0-7.68-7.68A19.268 19.268 0 0 0 37.818.856C35.012.729 34.123.695 27 .695c-7.122 0-8.035 0-10.82.16C14 .9 11.845 1.315 9.805 2.08a13.437 13.437 0 0 0-7.68 7.68 19.116 19.116 0 0 0-1.221 6.372C.779 18.942.74 19.831.74 26.953c0 7.123 0 8.033.164 10.821a19.237 19.237 0 0 0 1.222 6.379 13.445 13.445 0 0 0 7.682 7.677c2.035.796 4.19 1.24 6.373 1.312 2.809.125 3.699.163 10.821.163 7.123 0 8.035 0 10.82-.163A19.223 19.223 0 0 0 44.2 51.92a13.461 13.461 0 0 0 7.68-7.68 19.21 19.21 0 0 0 1.221-6.379c.126-2.805.164-3.695.164-10.82-.006-7.123-.006-8.027-.17-10.818Zm-26.113 24.2c-7.45 0-13.484-6.035-13.484-13.484 0-7.45 6.034-13.484 13.484-13.484a13.484 13.484 0 1 1 0 26.967ZM41.003 16.1a3.14 3.14 0 0 1-2.905-4.347 3.142 3.142 0 0 1 6.046 1.203 3.141 3.141 0 0 1-3.14 3.144Z" fill="#CCCCCC"/>
</symbol>
</svg>
