<svg width="0" height="0" xmlns="http://www.w3.org/2000/svg">
<symbol id="linkednIcon" viewBox="0 0 70 70">
<path d="M50.333.75H3.667A2.917 2.917 0 0 0 .75 3.667v46.666a2.916 2.916 0 0 0 2.917 2.917h46.666a2.916 2.916 0 0 0 2.917-2.917V3.667A2.917 2.917 0 0 0 50.333.75Zm-34.01 44.733H8.528V20.429h7.793v25.054Zm-3.898-28.475a4.515 4.515 0 1 1 0-9.031 4.515 4.515 0 0 1 0 9.03Zm33.06 28.475h-7.784V33.3c0-2.905-.052-6.641-4.048-6.641-4.054 0-4.67 3.167-4.67 6.437v12.39h-7.778V20.432h7.466v3.424h.108c1.036-1.969 3.579-4.046 7.362-4.046 7.887 0 9.342 5.186 9.342 11.935v13.738h.003Z" fill="#CCCCCC"/>
</symbol>
</svg>
